<mxfile host="app.diagrams.net" agent="Mozilla/5.0 (Windows NT 10.0; Win64; x64) AppleWebKit/537.36 (KHTML, like Gecko) Chrome/129.0.0.0 Safari/537.36" version="24.7.16">
  <diagram name="Page-1" id="b520641d-4fe3-3701-9064-5fc419738815">
    <mxGraphModel dx="1195" dy="615" grid="1" gridSize="10" guides="1" tooltips="1" connect="1" arrows="1" fold="1" page="1" pageScale="1" pageWidth="1100" pageHeight="850" background="none" math="0" shadow="0">
      <root>
        <mxCell id="0" />
        <mxCell id="1" parent="0" />
        <mxCell id="21ea969265ad0168-6" value="&lt;h2&gt;Inicio&lt;/h2&gt;" style="swimlane;html=1;fontStyle=0;childLayout=stackLayout;horizontal=1;startSize=26;fillColor=#009900;horizontalStack=0;resizeParent=1;resizeLast=0;collapsible=1;marginBottom=0;swimlaneFillColor=#ffffff;align=center;rounded=1;shadow=0;comic=0;labelBackgroundColor=none;strokeWidth=1;fontFamily=Verdana;fontSize=12;strokeColor=#009900;" parent="1" vertex="1">
          <mxGeometry x="80" y="20" width="80" height="20" as="geometry" />
        </mxCell>
        <mxCell id="uBZvNPL45ABJvevE8Oi5-14" style="edgeStyle=orthogonalEdgeStyle;rounded=0;orthogonalLoop=1;jettySize=auto;html=1;" edge="1" parent="1" source="UIC_Eg4Z1V4rmcMjVGlR-57" target="uBZvNPL45ABJvevE8Oi5-13">
          <mxGeometry relative="1" as="geometry" />
        </mxCell>
        <mxCell id="uBZvNPL45ABJvevE8Oi5-27" style="edgeStyle=orthogonalEdgeStyle;rounded=0;orthogonalLoop=1;jettySize=auto;html=1;" edge="1" parent="1" source="UIC_Eg4Z1V4rmcMjVGlR-57" target="uBZvNPL45ABJvevE8Oi5-19">
          <mxGeometry relative="1" as="geometry" />
        </mxCell>
        <mxCell id="UIC_Eg4Z1V4rmcMjVGlR-57" value="Erro: Email Invalido" style="html=1;rounded=0;shadow=0;comic=0;labelBackgroundColor=none;strokeWidth=2;fontFamily=Verdana;fontSize=12;align=center;shape=mxgraph.ios7ui.horLines;strokeColor=#FF9999;fillColor=#FF9999;" parent="1" vertex="1">
          <mxGeometry x="520" y="200" width="135" height="40" as="geometry" />
        </mxCell>
        <mxCell id="2debaab0fafb2da2-10" value="Validar CPF?" style="html=1;rounded=0;shadow=0;comic=0;labelBackgroundColor=none;strokeWidth=2;fontFamily=Verdana;fontSize=12;align=center;shape=mxgraph.ios7ui.horLines;strokeColor=#787800;fillColor=#787800;" parent="1" vertex="1">
          <mxGeometry x="280" y="120" width="135" height="40" as="geometry" />
        </mxCell>
        <mxCell id="21ea969265ad0168-14" value="Inserir dados cliente" style="swimlane;html=1;fontStyle=0;childLayout=stackLayout;horizontal=1;startSize=26;fillColor=#787800;horizontalStack=0;resizeParent=1;resizeLast=0;collapsible=1;marginBottom=0;swimlaneFillColor=#ffffff;align=center;rounded=1;shadow=0;comic=0;labelBackgroundColor=none;strokeWidth=1;fontFamily=Verdana;fontSize=12;strokeColor=#787800;" parent="1" vertex="1">
          <mxGeometry x="40" y="69" width="160" height="142" as="geometry">
            <mxRectangle x="160" y="266" width="190" height="60" as="alternateBounds" />
          </mxGeometry>
        </mxCell>
        <mxCell id="21ea969265ad0168-15" value="nome;" style="text;html=1;strokeColor=none;fillColor=none;spacingLeft=4;spacingRight=4;whiteSpace=wrap;overflow=hidden;rotatable=0;points=[[0,0.5],[1,0.5]];portConstraint=eastwest;" parent="21ea969265ad0168-14" vertex="1">
          <mxGeometry y="26" width="160" height="26" as="geometry" />
        </mxCell>
        <mxCell id="21ea969265ad0168-16" value="cpf;" style="text;html=1;strokeColor=none;fillColor=none;spacingLeft=4;spacingRight=4;whiteSpace=wrap;overflow=hidden;rotatable=0;points=[[0,0.5],[1,0.5]];portConstraint=eastwest;" parent="21ea969265ad0168-14" vertex="1">
          <mxGeometry y="52" width="160" height="26" as="geometry" />
        </mxCell>
        <mxCell id="21ea969265ad0168-17" value="email;" style="text;html=1;strokeColor=none;fillColor=none;spacingLeft=4;spacingRight=4;whiteSpace=wrap;overflow=hidden;rotatable=0;points=[[0,0.5],[1,0.5]];portConstraint=eastwest;" parent="21ea969265ad0168-14" vertex="1">
          <mxGeometry y="78" width="160" height="32" as="geometry" />
        </mxCell>
        <mxCell id="UIC_Eg4Z1V4rmcMjVGlR-2" value="telefone;" style="text;html=1;strokeColor=none;fillColor=none;spacingLeft=4;spacingRight=4;whiteSpace=wrap;overflow=hidden;rotatable=0;points=[[0,0.5],[1,0.5]];portConstraint=eastwest;" parent="21ea969265ad0168-14" vertex="1">
          <mxGeometry y="110" width="160" height="32" as="geometry" />
        </mxCell>
        <mxCell id="21ea969265ad0168-36" style="edgeStyle=orthogonalEdgeStyle;html=1;labelBackgroundColor=none;startFill=0;startSize=8;endFill=1;endSize=8;fontFamily=Verdana;fontSize=12;" parent="1" source="21ea969265ad0168-6" target="21ea969265ad0168-14" edge="1">
          <mxGeometry relative="1" as="geometry" />
        </mxCell>
        <mxCell id="UIC_Eg4Z1V4rmcMjVGlR-9" value="" style="endArrow=classic;html=1;rounded=0;" parent="1" source="2debaab0fafb2da2-10" edge="1" target="UIC_Eg4Z1V4rmcMjVGlR-55">
          <mxGeometry width="50" height="50" relative="1" as="geometry">
            <mxPoint x="260" y="260" as="sourcePoint" />
            <mxPoint x="507.6439393939395" y="193" as="targetPoint" />
            <Array as="points" />
          </mxGeometry>
        </mxCell>
        <mxCell id="uBZvNPL45ABJvevE8Oi5-46" style="edgeStyle=orthogonalEdgeStyle;rounded=0;orthogonalLoop=1;jettySize=auto;html=1;" edge="1" parent="1" source="UIC_Eg4Z1V4rmcMjVGlR-11" target="UIC_Eg4Z1V4rmcMjVGlR-57">
          <mxGeometry relative="1" as="geometry" />
        </mxCell>
        <mxCell id="UIC_Eg4Z1V4rmcMjVGlR-11" value="Validar Email" style="html=1;rounded=0;shadow=0;comic=0;labelBackgroundColor=none;strokeWidth=2;fontFamily=Verdana;fontSize=12;align=center;shape=mxgraph.ios7ui.horLines;strokeColor=#787800;fillColor=#787800;" parent="1" vertex="1">
          <mxGeometry x="520" y="120" width="135" height="40" as="geometry" />
        </mxCell>
        <mxCell id="UIC_Eg4Z1V4rmcMjVGlR-13" value="" style="endArrow=classic;html=1;rounded=0;" parent="1" source="2debaab0fafb2da2-10" target="UIC_Eg4Z1V4rmcMjVGlR-11" edge="1">
          <mxGeometry width="50" height="50" relative="1" as="geometry">
            <mxPoint x="30" y="360" as="sourcePoint" />
            <mxPoint x="80" y="310" as="targetPoint" />
          </mxGeometry>
        </mxCell>
        <mxCell id="uBZvNPL45ABJvevE8Oi5-32" style="edgeStyle=orthogonalEdgeStyle;rounded=0;orthogonalLoop=1;jettySize=auto;html=1;" edge="1" parent="1" source="UIC_Eg4Z1V4rmcMjVGlR-16" target="UIC_Eg4Z1V4rmcMjVGlR-19">
          <mxGeometry relative="1" as="geometry" />
        </mxCell>
        <mxCell id="UIC_Eg4Z1V4rmcMjVGlR-16" value="&lt;font style=&quot;font-size: 11px;&quot;&gt;Cadastro Bem-sucedido&lt;/font&gt;" style="html=1;rounded=0;shadow=0;comic=0;labelBackgroundColor=none;strokeWidth=2;fontFamily=Verdana;fontSize=12;align=center;shape=mxgraph.ios7ui.horLines;strokeColor=#009900;fillColor=#009900;" parent="1" vertex="1">
          <mxGeometry x="840" y="120" width="135" height="40" as="geometry" />
        </mxCell>
        <mxCell id="UIC_Eg4Z1V4rmcMjVGlR-17" value="" style="endArrow=classic;html=1;rounded=0;" parent="1" source="UIC_Eg4Z1V4rmcMjVGlR-11" target="UIC_Eg4Z1V4rmcMjVGlR-16" edge="1">
          <mxGeometry width="50" height="50" relative="1" as="geometry">
            <mxPoint x="290" y="580" as="sourcePoint" />
            <mxPoint x="340" y="530" as="targetPoint" />
          </mxGeometry>
        </mxCell>
        <mxCell id="UIC_Eg4Z1V4rmcMjVGlR-19" value="Gerar PDF de Cadastro" style="swimlane;html=1;fontStyle=0;childLayout=stackLayout;horizontal=1;startSize=26;fillColor=#787800;horizontalStack=0;resizeParent=1;resizeLast=0;collapsible=1;marginBottom=0;swimlaneFillColor=#ffffff;align=center;rounded=1;shadow=0;comic=0;labelBackgroundColor=none;strokeWidth=1;fontFamily=Verdana;fontSize=12;strokeColor=#787800;" parent="1" vertex="1">
          <mxGeometry x="907.5" y="280" width="160" height="130" as="geometry">
            <mxRectangle x="160" y="266" width="190" height="60" as="alternateBounds" />
          </mxGeometry>
        </mxCell>
        <mxCell id="UIC_Eg4Z1V4rmcMjVGlR-20" value="Dados do Cliente;" style="text;html=1;strokeColor=none;fillColor=none;spacingLeft=4;spacingRight=4;whiteSpace=wrap;overflow=hidden;rotatable=0;points=[[0,0.5],[1,0.5]];portConstraint=eastwest;" parent="UIC_Eg4Z1V4rmcMjVGlR-19" vertex="1">
          <mxGeometry y="26" width="160" height="26" as="geometry" />
        </mxCell>
        <mxCell id="UIC_Eg4Z1V4rmcMjVGlR-21" value="nome;" style="text;html=1;strokeColor=none;fillColor=none;spacingLeft=4;spacingRight=4;whiteSpace=wrap;overflow=hidden;rotatable=0;points=[[0,0.5],[1,0.5]];portConstraint=eastwest;" parent="UIC_Eg4Z1V4rmcMjVGlR-19" vertex="1">
          <mxGeometry y="52" width="160" height="26" as="geometry" />
        </mxCell>
        <mxCell id="UIC_Eg4Z1V4rmcMjVGlR-22" value="cpf;" style="text;html=1;strokeColor=none;fillColor=none;spacingLeft=4;spacingRight=4;whiteSpace=wrap;overflow=hidden;rotatable=0;points=[[0,0.5],[1,0.5]];portConstraint=eastwest;" parent="UIC_Eg4Z1V4rmcMjVGlR-19" vertex="1">
          <mxGeometry y="78" width="160" height="22" as="geometry" />
        </mxCell>
        <mxCell id="UIC_Eg4Z1V4rmcMjVGlR-23" value="data de emissÃ£o" style="text;html=1;strokeColor=none;fillColor=none;spacingLeft=4;spacingRight=4;whiteSpace=wrap;overflow=hidden;rotatable=0;points=[[0,0.5],[1,0.5]];portConstraint=eastwest;" parent="UIC_Eg4Z1V4rmcMjVGlR-19" vertex="1">
          <mxGeometry y="100" width="160" height="20" as="geometry" />
        </mxCell>
        <mxCell id="uBZvNPL45ABJvevE8Oi5-35" style="edgeStyle=orthogonalEdgeStyle;rounded=0;orthogonalLoop=1;jettySize=auto;html=1;" edge="1" parent="1" source="UIC_Eg4Z1V4rmcMjVGlR-31" target="UIC_Eg4Z1V4rmcMjVGlR-33">
          <mxGeometry relative="1" as="geometry" />
        </mxCell>
        <mxCell id="UIC_Eg4Z1V4rmcMjVGlR-31" value="&lt;font style=&quot;font-size: 11px;&quot;&gt;ExclusÃ£o de Cliente?&lt;/font&gt;" style="html=1;rounded=0;shadow=0;comic=0;labelBackgroundColor=none;strokeWidth=2;fontFamily=Verdana;fontSize=12;align=center;shape=mxgraph.ios7ui.horLines;strokeColor=#787800;fillColor=#787800;" parent="1" vertex="1">
          <mxGeometry x="920" y="480" width="135" height="40" as="geometry" />
        </mxCell>
        <mxCell id="uBZvNPL45ABJvevE8Oi5-36" style="edgeStyle=orthogonalEdgeStyle;rounded=0;orthogonalLoop=1;jettySize=auto;html=1;" edge="1" parent="1" source="UIC_Eg4Z1V4rmcMjVGlR-33" target="UIC_Eg4Z1V4rmcMjVGlR-47">
          <mxGeometry relative="1" as="geometry" />
        </mxCell>
        <mxCell id="UIC_Eg4Z1V4rmcMjVGlR-33" value="&lt;font style=&quot;font-size: 11px;&quot;&gt;Confirmar ExclusÃ£o&lt;/font&gt;" style="html=1;rounded=0;shadow=0;comic=0;labelBackgroundColor=none;strokeWidth=2;fontFamily=Verdana;fontSize=12;align=center;shape=mxgraph.ios7ui.horLines;strokeColor=#787800;fillColor=#787800;" parent="1" vertex="1">
          <mxGeometry x="920" y="560" width="135" height="40" as="geometry" />
        </mxCell>
        <mxCell id="uBZvNPL45ABJvevE8Oi5-39" style="edgeStyle=orthogonalEdgeStyle;rounded=0;orthogonalLoop=1;jettySize=auto;html=1;" edge="1" parent="1" source="UIC_Eg4Z1V4rmcMjVGlR-36" target="UIC_Eg4Z1V4rmcMjVGlR-43">
          <mxGeometry relative="1" as="geometry">
            <Array as="points">
              <mxPoint x="740" y="810" />
            </Array>
          </mxGeometry>
        </mxCell>
        <mxCell id="UIC_Eg4Z1V4rmcMjVGlR-36" value="Gerar PDF de ExclusÃ£o" style="swimlane;html=1;fontStyle=0;childLayout=stackLayout;horizontal=1;startSize=26;fillColor=#787800;horizontalStack=0;resizeParent=1;resizeLast=0;collapsible=1;marginBottom=0;swimlaneFillColor=#ffffff;align=center;rounded=1;shadow=0;comic=0;labelBackgroundColor=none;strokeWidth=1;fontFamily=Verdana;fontSize=12;strokeColor=#787800;" parent="1" vertex="1">
          <mxGeometry x="660" y="560" width="160" height="150" as="geometry">
            <mxRectangle x="160" y="266" width="190" height="60" as="alternateBounds" />
          </mxGeometry>
        </mxCell>
        <mxCell id="UIC_Eg4Z1V4rmcMjVGlR-37" value="Dados do Cliente;" style="text;html=1;strokeColor=none;fillColor=none;spacingLeft=4;spacingRight=4;whiteSpace=wrap;overflow=hidden;rotatable=0;points=[[0,0.5],[1,0.5]];portConstraint=eastwest;" parent="UIC_Eg4Z1V4rmcMjVGlR-36" vertex="1">
          <mxGeometry y="26" width="160" height="26" as="geometry" />
        </mxCell>
        <mxCell id="UIC_Eg4Z1V4rmcMjVGlR-38" value="nome;" style="text;html=1;strokeColor=none;fillColor=none;spacingLeft=4;spacingRight=4;whiteSpace=wrap;overflow=hidden;rotatable=0;points=[[0,0.5],[1,0.5]];portConstraint=eastwest;" parent="UIC_Eg4Z1V4rmcMjVGlR-36" vertex="1">
          <mxGeometry y="52" width="160" height="26" as="geometry" />
        </mxCell>
        <mxCell id="UIC_Eg4Z1V4rmcMjVGlR-39" value="cpf;" style="text;html=1;strokeColor=none;fillColor=none;spacingLeft=4;spacingRight=4;whiteSpace=wrap;overflow=hidden;rotatable=0;points=[[0,0.5],[1,0.5]];portConstraint=eastwest;" parent="UIC_Eg4Z1V4rmcMjVGlR-36" vertex="1">
          <mxGeometry y="78" width="160" height="22" as="geometry" />
        </mxCell>
        <mxCell id="UIC_Eg4Z1V4rmcMjVGlR-40" value="data de emissÃ£o" style="text;html=1;strokeColor=none;fillColor=none;spacingLeft=4;spacingRight=4;whiteSpace=wrap;overflow=hidden;rotatable=0;points=[[0,0.5],[1,0.5]];portConstraint=eastwest;" parent="UIC_Eg4Z1V4rmcMjVGlR-36" vertex="1">
          <mxGeometry y="100" width="160" height="20" as="geometry" />
        </mxCell>
        <mxCell id="UIC_Eg4Z1V4rmcMjVGlR-42" value="motivo de exclusÃ£o" style="text;html=1;strokeColor=none;fillColor=none;spacingLeft=4;spacingRight=4;whiteSpace=wrap;overflow=hidden;rotatable=0;points=[[0,0.5],[1,0.5]];portConstraint=eastwest;" parent="UIC_Eg4Z1V4rmcMjVGlR-36" vertex="1">
          <mxGeometry y="120" width="160" height="20" as="geometry" />
        </mxCell>
        <mxCell id="UIC_Eg4Z1V4rmcMjVGlR-43" value="&lt;h2&gt;FinalizaÃ§Ã£o&lt;/h2&gt;" style="swimlane;html=1;fontStyle=0;childLayout=stackLayout;horizontal=1;startSize=26;fillColor=#009900;horizontalStack=0;resizeParent=1;resizeLast=0;collapsible=1;marginBottom=0;swimlaneFillColor=#ffffff;align=center;rounded=1;shadow=0;comic=0;labelBackgroundColor=none;strokeWidth=1;fontFamily=Verdana;fontSize=12;strokeColor=#009900;" parent="1" vertex="1">
          <mxGeometry x="870" y="800" width="130" height="20" as="geometry">
            <mxRectangle x="775" y="780" width="150" height="60" as="alternateBounds" />
          </mxGeometry>
        </mxCell>
        <mxCell id="uBZvNPL45ABJvevE8Oi5-38" style="edgeStyle=orthogonalEdgeStyle;rounded=0;orthogonalLoop=1;jettySize=auto;html=1;" edge="1" parent="1" source="UIC_Eg4Z1V4rmcMjVGlR-47" target="UIC_Eg4Z1V4rmcMjVGlR-36">
          <mxGeometry relative="1" as="geometry" />
        </mxCell>
        <mxCell id="UIC_Eg4Z1V4rmcMjVGlR-47" value="&lt;font style=&quot;font-size: 11px;&quot;&gt;Sim&lt;/font&gt;" style="html=1;rounded=0;shadow=0;comic=0;labelBackgroundColor=none;strokeWidth=2;fontFamily=Verdana;fontSize=12;align=center;shape=mxgraph.ios7ui.horLines;fillColor=#009900;strokeColor=#009900;" parent="1" vertex="1">
          <mxGeometry x="957.5" y="660" width="60" height="30" as="geometry" />
        </mxCell>
        <mxCell id="UIC_Eg4Z1V4rmcMjVGlR-53" value="" style="endArrow=classic;html=1;rounded=0;" parent="1" source="UIC_Eg4Z1V4rmcMjVGlR-19" target="UIC_Eg4Z1V4rmcMjVGlR-31" edge="1">
          <mxGeometry width="50" height="50" relative="1" as="geometry">
            <mxPoint x="170" y="710" as="sourcePoint" />
            <mxPoint x="220" y="660" as="targetPoint" />
          </mxGeometry>
        </mxCell>
        <mxCell id="UIC_Eg4Z1V4rmcMjVGlR-54" value="&lt;h2&gt;&lt;span style=&quot;color: rgb(17, 17, 17); font-family: -apple-system, Roboto, SegoeUI, &amp;quot;Segoe UI&amp;quot;, &amp;quot;Helvetica Neue&amp;quot;, Helvetica, &amp;quot;Microsoft YaHei&amp;quot;, &amp;quot;Meiryo UI&amp;quot;, Meiryo, &amp;quot;Arial Unicode MS&amp;quot;, sans-serif; text-align: left; background-color: rgb(247, 247, 247);&quot;&gt;&lt;font style=&quot;font-size: 18px;&quot;&gt;Fluxo de Cadastro Clientes&lt;/font&gt;&lt;/span&gt;&lt;/h2&gt;" style="text;html=1;align=center;verticalAlign=middle;whiteSpace=wrap;rounded=0;" parent="1" vertex="1">
          <mxGeometry x="432.5" y="20" width="315" height="25" as="geometry" />
        </mxCell>
        <mxCell id="uBZvNPL45ABJvevE8Oi5-5" value="" style="edgeStyle=orthogonalEdgeStyle;rounded=0;orthogonalLoop=1;jettySize=auto;html=1;" edge="1" parent="1" source="UIC_Eg4Z1V4rmcMjVGlR-55" target="uBZvNPL45ABJvevE8Oi5-1">
          <mxGeometry relative="1" as="geometry" />
        </mxCell>
        <mxCell id="uBZvNPL45ABJvevE8Oi5-9" style="edgeStyle=orthogonalEdgeStyle;rounded=0;orthogonalLoop=1;jettySize=auto;html=1;" edge="1" parent="1" source="UIC_Eg4Z1V4rmcMjVGlR-55" target="uBZvNPL45ABJvevE8Oi5-8">
          <mxGeometry relative="1" as="geometry" />
        </mxCell>
        <mxCell id="UIC_Eg4Z1V4rmcMjVGlR-55" value="Erro: CPF Invalido" style="html=1;rounded=0;shadow=0;comic=0;labelBackgroundColor=none;strokeWidth=2;fontFamily=Verdana;fontSize=12;align=center;shape=mxgraph.ios7ui.horLines;strokeColor=#FF9999;fillColor=#FF9999;" parent="1" vertex="1">
          <mxGeometry x="280" y="200" width="135" height="40" as="geometry" />
        </mxCell>
        <mxCell id="UIC_Eg4Z1V4rmcMjVGlR-58" value="" style="endArrow=classic;html=1;rounded=0;" parent="1" source="21ea969265ad0168-14" target="2debaab0fafb2da2-10" edge="1">
          <mxGeometry width="50" height="50" relative="1" as="geometry">
            <mxPoint x="70" y="370" as="sourcePoint" />
            <mxPoint x="120" y="320" as="targetPoint" />
            <Array as="points" />
          </mxGeometry>
        </mxCell>
        <mxCell id="uBZvNPL45ABJvevE8Oi5-41" style="edgeStyle=orthogonalEdgeStyle;rounded=0;orthogonalLoop=1;jettySize=auto;html=1;" edge="1" parent="1" source="uBZvNPL45ABJvevE8Oi5-1" target="UIC_Eg4Z1V4rmcMjVGlR-11">
          <mxGeometry relative="1" as="geometry">
            <Array as="points">
              <mxPoint x="480" y="325" />
              <mxPoint x="480" y="140" />
            </Array>
          </mxGeometry>
        </mxCell>
        <mxCell id="uBZvNPL45ABJvevE8Oi5-1" value="&lt;font style=&quot;font-size: 11px;&quot;&gt;NÃ£o&lt;/font&gt;" style="html=1;rounded=0;shadow=0;comic=0;labelBackgroundColor=none;strokeWidth=2;fontFamily=Verdana;fontSize=12;align=center;shape=mxgraph.ios7ui.horLines;fillColor=#FF9999;strokeColor=#FF9999;" vertex="1" parent="1">
          <mxGeometry x="360" y="310" width="60" height="30" as="geometry" />
        </mxCell>
        <mxCell id="uBZvNPL45ABJvevE8Oi5-26" style="edgeStyle=orthogonalEdgeStyle;rounded=0;orthogonalLoop=1;jettySize=auto;html=1;" edge="1" parent="1" source="uBZvNPL45ABJvevE8Oi5-8" target="uBZvNPL45ABJvevE8Oi5-10">
          <mxGeometry relative="1" as="geometry" />
        </mxCell>
        <mxCell id="uBZvNPL45ABJvevE8Oi5-8" value="&lt;font style=&quot;font-size: 11px;&quot;&gt;Sim&lt;/font&gt;" style="html=1;rounded=0;shadow=0;comic=0;labelBackgroundColor=none;strokeWidth=2;fontFamily=Verdana;fontSize=12;align=center;shape=mxgraph.ios7ui.horLines;fillColor=#009900;strokeColor=#009900;" vertex="1" parent="1">
          <mxGeometry x="280" y="310" width="60" height="30" as="geometry" />
        </mxCell>
        <mxCell id="uBZvNPL45ABJvevE8Oi5-12" style="edgeStyle=orthogonalEdgeStyle;rounded=0;orthogonalLoop=1;jettySize=auto;html=1;" edge="1" parent="1" source="uBZvNPL45ABJvevE8Oi5-10" target="21ea969265ad0168-14">
          <mxGeometry relative="1" as="geometry" />
        </mxCell>
        <mxCell id="uBZvNPL45ABJvevE8Oi5-10" value="&lt;font style=&quot;font-size: 11px;&quot;&gt;Mensagem: CPF Invalido&lt;/font&gt;" style="html=1;rounded=0;shadow=0;comic=0;labelBackgroundColor=none;strokeWidth=2;fontFamily=Verdana;fontSize=12;align=center;shape=mxgraph.ios7ui.horLines;strokeColor=#FF9999;fillColor=#FF9999;" vertex="1" parent="1">
          <mxGeometry x="207.5" y="400" width="152.5" height="40" as="geometry" />
        </mxCell>
        <mxCell id="uBZvNPL45ABJvevE8Oi5-42" style="edgeStyle=orthogonalEdgeStyle;rounded=0;orthogonalLoop=1;jettySize=auto;html=1;" edge="1" parent="1" source="uBZvNPL45ABJvevE8Oi5-13" target="UIC_Eg4Z1V4rmcMjVGlR-16">
          <mxGeometry relative="1" as="geometry">
            <Array as="points">
              <mxPoint x="780" y="325" />
              <mxPoint x="780" y="140" />
            </Array>
          </mxGeometry>
        </mxCell>
        <mxCell id="uBZvNPL45ABJvevE8Oi5-13" value="&lt;font style=&quot;font-size: 11px;&quot;&gt;NÃ£o&lt;/font&gt;" style="html=1;rounded=0;shadow=0;comic=0;labelBackgroundColor=none;strokeWidth=2;fontFamily=Verdana;fontSize=12;align=center;shape=mxgraph.ios7ui.horLines;fillColor=#FF9999;strokeColor=#FF9999;" vertex="1" parent="1">
          <mxGeometry x="600" y="310" width="60" height="30" as="geometry" />
        </mxCell>
        <mxCell id="uBZvNPL45ABJvevE8Oi5-44" style="edgeStyle=orthogonalEdgeStyle;rounded=0;orthogonalLoop=1;jettySize=auto;html=1;" edge="1" parent="1" source="uBZvNPL45ABJvevE8Oi5-19" target="uBZvNPL45ABJvevE8Oi5-15">
          <mxGeometry relative="1" as="geometry" />
        </mxCell>
        <mxCell id="uBZvNPL45ABJvevE8Oi5-19" value="&lt;font style=&quot;font-size: 11px;&quot;&gt;Sim&lt;/font&gt;" style="html=1;rounded=0;shadow=0;comic=0;labelBackgroundColor=none;strokeWidth=2;fontFamily=Verdana;fontSize=12;align=center;shape=mxgraph.ios7ui.horLines;fillColor=#009900;strokeColor=#009900;" vertex="1" parent="1">
          <mxGeometry x="520" y="310" width="60" height="30" as="geometry" />
        </mxCell>
        <mxCell id="uBZvNPL45ABJvevE8Oi5-45" style="edgeStyle=orthogonalEdgeStyle;rounded=0;orthogonalLoop=1;jettySize=auto;html=1;" edge="1" parent="1" source="uBZvNPL45ABJvevE8Oi5-15" target="21ea969265ad0168-14">
          <mxGeometry relative="1" as="geometry">
            <Array as="points">
              <mxPoint x="509" y="480" />
              <mxPoint x="120" y="480" />
            </Array>
          </mxGeometry>
        </mxCell>
        <mxCell id="uBZvNPL45ABJvevE8Oi5-15" value="&lt;font style=&quot;font-size: 11px;&quot;&gt;Mensagem: Email Invalido&lt;/font&gt;" style="html=1;rounded=0;shadow=0;comic=0;labelBackgroundColor=none;strokeWidth=2;fontFamily=Verdana;fontSize=12;align=center;shape=mxgraph.ios7ui.horLines;strokeColor=#FF9999;fillColor=#FF9999;" vertex="1" parent="1">
          <mxGeometry x="432.5" y="400" width="152.5" height="40" as="geometry" />
        </mxCell>
      </root>
    </mxGraphModel>
  </diagram>
</mxfile>
